<?xml version="1.0" encoding="UTF-8"?>
<svg version="1.1" xmlns="http://www.w3.org/2000/svg" width="600" height="600">
<path d="M0 0 C4.07101309 1.69547743 7.78403167 3.8609544 11.5625 6.125 C12.64152588 6.75083984 13.72055176 7.37667969 14.83227539 8.02148438 C17.09269705 9.33556471 19.34810049 10.65831173 21.59863281 11.98925781 C24.9274878 13.9571339 28.26949239 15.90031754 31.6171875 17.8359375 C36.53513026 20.6840516 41.44822373 23.53962229 46.33935547 26.43359375 C48.15349827 27.50163745 49.9758703 28.55579593 51.80517578 29.59765625 C52.69575684 30.11199219 53.58633789 30.62632812 54.50390625 31.15625 C55.29740479 31.60806641 56.09090332 32.05988281 56.90844727 32.52539062 C59.30206431 34.21296468 60.49872554 35.47441274 62 38 C62.38095093 41.18077087 62.38095093 41.18077087 62.38818359 44.98413086 C62.39606903 46.02634544 62.39606903 46.02634544 62.40411377 47.08961487 C62.41729457 49.38158797 62.40858204 51.67286383 62.3984375 53.96484375 C62.40045903 55.56140781 62.40337113 57.15797096 62.40713501 58.75453186 C62.41155594 62.09938352 62.40513576 65.44399468 62.39111328 68.78881836 C62.37403521 73.07063705 62.383855 77.35189102 62.40183067 81.63368893 C62.4126867 84.93059012 62.40921362 88.22735811 62.4014473 91.52426338 C62.39944959 93.10267771 62.40188947 94.68110423 62.40888596 96.25950432 C62.41652908 98.46881872 62.4048568 100.67722743 62.38818359 102.88647461 C62.38579681 104.142379 62.38341003 105.39828339 62.38095093 106.69224548 C61.96847154 110.27375814 61.14626226 112.13630266 59 115 C56.68530273 116.70654297 56.68530273 116.70654297 53.93359375 118.2421875 C52.90274658 118.82637451 51.87189941 119.41056152 50.80981445 120.01245117 C49.69695068 120.62709229 48.58408691 121.2417334 47.4375 121.875 C45.68713733 122.86224837 43.93678581 123.84951717 42.18711853 124.83799744 C40.36147726 125.86749996 38.5329497 126.89173441 36.70410156 127.91552734 C30.70659358 131.28085496 24.76345702 134.74079572 18.8125 138.1875 C15.73310215 139.96574707 12.65363218 141.74331029 9.56494141 143.50537109 C8.02019794 144.40551572 6.49032425 145.33304439 4.99365234 146.31103516 C1.56755285 148.51621845 -1.52841645 149.79781166 -5.66064453 149.56542969 C-11.20986512 148.22416535 -16.05491633 144.98878093 -20.9375 142.125 C-22.14796017 141.43137699 -23.35923095 140.73916676 -24.57128906 140.04833984 C-28.06000181 138.05326021 -31.53062785 136.02852013 -35 134 C-36.67297637 133.03090343 -38.34612604 132.06210588 -40.01953125 131.09375 C-43.38474438 129.13701196 -46.73060301 127.14995181 -50.06933594 125.1484375 C-52.12316434 123.92673684 -54.18924282 122.72780327 -56.2578125 121.53125 C-57.63028997 120.72930636 -59.00268888 119.92722827 -60.375 119.125 C-61.00051758 118.76744629 -61.62603516 118.40989258 -62.27050781 118.04150391 C-66.87275021 115.32759105 -69.30913738 113.07258787 -71 108 C-71.10445161 105.86996569 -71.14863925 103.73680525 -71.16113281 101.60424805 C-71.16858017 100.63781372 -71.16858017 100.63781372 -71.17617798 99.65185547 C-71.19077424 97.52179899 -71.19759777 95.39181701 -71.203125 93.26171875 C-71.2088791 91.77822366 -71.2146368 90.29472858 -71.22039795 88.81123352 C-71.2309011 85.7000799 -71.23674806 82.58895206 -71.24023438 79.4777832 C-71.24571387 75.49987107 -71.26973282 71.52230213 -71.29820633 67.54449749 C-71.31687271 64.47920247 -71.32204045 61.4139894 -71.32357025 58.34864235 C-71.32658893 56.88267964 -71.33459093 55.4167181 -71.34775543 53.95081139 C-71.36489844 51.89492421 -71.36291612 49.8398661 -71.35644531 47.78393555 C-71.36009094 46.61606003 -71.36373657 45.44818451 -71.36749268 44.24491882 C-70.87022087 39.85406496 -69.50894461 36.37003566 -66.2019043 33.36743164 C-65.52039307 32.94840576 -64.83888184 32.52937988 -64.13671875 32.09765625 C-62.93861572 31.35346436 -62.93861572 31.35346436 -61.71630859 30.59423828 C-60.81992676 30.06813965 -59.92354492 29.54204102 -59 29 C-58.0095166 28.41847168 -57.0190332 27.83694336 -55.99853516 27.23779297 C-52.61556819 25.28208713 -49.21719553 23.35499345 -45.8125 21.4375 C-38.67573982 17.41264765 -31.55791561 13.38615992 -24.59375 9.06640625 C-23.61301514 8.46320557 -22.63228027 7.86000488 -21.62182617 7.23852539 C-19.80181402 6.11222779 -17.9913047 4.97036691 -16.19262695 3.81030273 C-10.77746077 0.4790793 -6.37045486 -1.52759905 0 0 Z " fill="#0063C8" transform="translate(304,112)"/>
<path d="M0 0 C4.12936954 1.83920857 7.98310493 4.08240118 11.875 6.375 C13.54175781 7.3335791 13.54175781 7.3335791 15.2421875 8.31152344 C18.50391747 10.19249214 21.75328308 12.09326354 25 14 C26.60651396 14.93533718 28.21325371 15.87028675 29.8203125 16.8046875 C32.54716579 18.39555906 35.26499307 20.00041757 37.9765625 21.6171875 C40.87083898 23.34110081 43.78462301 25.02637081 46.7109375 26.6953125 C47.49082031 27.14358398 48.27070313 27.59185547 49.07421875 28.05371094 C50.56521739 28.90995931 52.05981688 29.7599798 53.55859375 30.60253906 C54.22761719 30.98893555 54.89664063 31.37533203 55.5859375 31.7734375 C56.1742334 32.10778809 56.7625293 32.44213867 57.36865234 32.78662109 C59.49511085 34.36825815 60.62439325 35.70892845 62 38 C62.39440918 41.25669861 62.39440918 41.25669861 62.41992188 45.16772461 C62.42839142 45.88204147 62.43686096 46.59635834 62.44558716 47.33232117 C62.46895023 49.68917741 62.46997955 52.04538056 62.46875 54.40234375 C62.47585197 56.0437496 62.48355102 57.68515297 62.49182129 59.32655334 C62.50526442 62.76554263 62.50683565 66.20430235 62.50097656 69.64331055 C62.4950801 74.04644098 62.52566941 78.4484689 62.56609344 82.85138607 C62.59196585 86.24095068 62.59484833 89.63024963 62.59120178 93.01989937 C62.59289344 94.64299859 62.6025405 96.26611003 62.62034607 97.88911247 C62.64252917 100.1611153 62.63284068 102.43088449 62.61523438 104.70288086 C62.61728882 105.99431503 62.61934326 107.28574921 62.62145996 108.61631775 C61.84026406 112.86971919 60.29182565 114.29292238 57 117 C54.67358398 118.59887695 54.67358398 118.59887695 52.24609375 119.98828125 C51.32223877 120.52219482 50.39838379 121.0561084 49.4465332 121.60620117 C47.95706177 122.45081909 47.95706177 122.45081909 46.4375 123.3125 C45.40133545 123.90844971 44.3651709 124.50439941 43.29760742 125.1184082 C40.47238255 126.74099932 37.64314784 128.35629176 34.81164551 129.96789551 C31.6607998 131.76294978 28.51432586 133.56564408 25.3671875 135.3671875 C21.63973213 137.50030767 17.91152554 139.63206304 14.17944336 141.75708008 C13.05417236 142.39798584 11.92890137 143.0388916 10.76953125 143.69921875 C9.77542236 144.26471436 8.78131348 144.83020996 7.75708008 145.4128418 C5.00544606 146.94115172 5.00544606 146.94115172 2.5769043 148.70629883 C-0.86518649 150.43435559 -3.18635553 150.40220704 -7 150 C-9.98413086 148.75341797 -9.98413086 148.75341797 -12.96484375 146.9921875 C-14.08334717 146.34169434 -15.20185059 145.69120117 -16.35424805 145.02099609 C-17.54886634 144.30599974 -18.74327907 143.59065985 -19.9375 142.875 C-21.17733144 142.14656908 -22.41798456 141.41953502 -23.65942383 140.69384766 C-26.20008178 139.20589824 -28.73566371 137.70980804 -31.26757812 136.20703125 C-34.78370226 134.12276137 -38.31835513 132.07295628 -41.859375 130.03125 C-43.96890307 128.81276496 -46.07828546 127.59402767 -48.1875 126.375 C-49.14712646 125.82054199 -50.10675293 125.26608398 -51.09545898 124.69482422 C-55.45822802 122.15164439 -59.79017712 119.56293321 -64.05078125 116.8515625 C-65.12259644 116.172146 -65.12259644 116.172146 -66.21606445 115.47900391 C-68.33931711 113.71868304 -68.99880113 112.57471839 -70 110 C-70.26742554 106.90188599 -70.26742554 106.90188599 -70.29052734 103.21533203 C-70.29724457 102.54163574 -70.30396179 101.86793945 -70.31088257 101.17382812 C-70.32984473 98.95174741 -70.33378583 96.72996904 -70.3359375 94.5078125 C-70.3423668 92.95848467 -70.34909526 91.40915806 -70.35610962 89.85983276 C-70.36807799 86.61339504 -70.37179092 83.36706369 -70.37060547 80.12060547 C-70.37040233 75.96883447 -70.39770057 71.81774837 -70.43214989 67.6661396 C-70.45443209 64.46614474 -70.45844261 61.26631434 -70.45738602 58.06624985 C-70.45974014 56.53608719 -70.46855312 55.00591988 -70.48405075 53.47583389 C-70.50373846 51.33122618 -70.49786362 49.18809054 -70.48583984 47.04345703 C-70.48868988 45.82530304 -70.49153992 44.60714905 -70.49447632 43.3520813 C-69.75994144 38.37263023 -67.57270675 35.17881851 -63.57177734 32.17993164 C-62.6689502 31.67840576 -61.76612305 31.17687988 -60.8359375 30.66015625 C-59.80831299 30.07919189 -58.78068848 29.49822754 -57.72192383 28.8996582 C-56.61743896 28.293396 -55.5129541 27.68713379 -54.375 27.0625 C-52.63133037 26.08203204 -50.88767349 25.10154056 -49.14479065 24.11967468 C-47.32815251 23.09841053 -45.50825928 22.0831317 -43.68798828 21.06835938 C-37.69135279 17.71632368 -31.75644505 14.25675449 -25.8125 10.8125 C-22.73414008 9.03475519 -19.65551346 7.2579161 -16.56884766 5.49462891 C-15.01390579 4.58991934 -13.47222135 3.66106537 -11.95849609 2.68896484 C-7.72282387 0.00507928 -4.97144267 -0.847289 0 0 Z " fill="#0063C7" transform="translate(377,238)"/>
<path d="M0 0 C1.29478271 0.73827026 1.29478271 0.73827026 2.61572266 1.49145508 C3.60169434 2.04824951 4.58766602 2.60504395 5.60351562 3.17871094 C6.65168457 3.78336182 7.69985352 4.3880127 8.77978516 5.01098633 C9.87307129 5.63303955 10.96635742 6.25509277 12.09277344 6.89599609 C15.53656538 8.860809 18.97157773 10.84024462 22.40478516 12.82348633 C24.05607422 13.77384766 24.05607422 13.77384766 25.74072266 14.7434082 C28.92358678 16.57718064 32.1028534 18.41695729 35.27978516 20.26098633 C36.71136963 21.09182739 36.71136963 21.09182739 38.171875 21.93945312 C40.92675534 23.5504477 43.66853916 25.18105783 46.40478516 26.82348633 C47.92313965 27.72671631 47.92313965 27.72671631 49.47216797 28.64819336 C50.95861816 29.55674072 50.95861816 29.55674072 52.47509766 30.48364258 C53.37244629 31.02770752 54.26979492 31.57177246 55.19433594 32.13232422 C57.65619816 34.01583643 58.31752038 34.95466403 59.40478516 37.82348633 C59.66548157 40.92832947 59.66548157 40.92832947 59.67944336 44.62402344 C59.68455429 45.29932602 59.68966522 45.9746286 59.69493103 46.6703949 C59.70880335 48.89729739 59.70787211 51.12388957 59.70556641 53.35083008 C59.70945463 54.90255345 59.71378956 56.45427577 59.71855164 58.0059967 C59.72600874 61.25663708 59.72572628 64.50716884 59.72045898 67.7578125 C59.71466481 71.91854064 59.73159624 76.07882357 59.75480366 80.23947811 C59.7695525 83.44371632 59.77041115 86.64784758 59.76729393 89.85211372 C59.76780656 91.38587895 59.77303338 92.91965025 59.78310585 94.45338249 C59.7954758 96.60039886 59.7886762 98.74655161 59.77709961 100.89355469 C59.77772903 102.11392929 59.77835846 103.33430389 59.77900696 104.59165955 C59.28470533 108.86051091 57.87490062 111.56881193 54.60888672 114.35620117 C53.92793945 114.78626465 53.24699219 115.21632813 52.54541016 115.65942383 C51.74683594 116.16441406 50.94826172 116.6694043 50.12548828 117.18969727 C44.84837027 120.35861989 39.51317695 123.41966822 34.15478516 126.44848633 C32.92038551 127.14940965 31.68617547 127.85066697 30.45214844 128.55224609 C27.9667804 129.96487085 25.4805398 131.37594072 22.99365234 132.78588867 C16.86040219 136.26523766 10.74499209 139.77585766 4.62646484 143.28100586 C3.82885742 143.73717285 3.03125 144.19333984 2.20947266 144.66333008 C1.51837402 145.0589917 0.82727539 145.45465332 0.11523438 145.86230469 C-3.66973669 147.98925746 -6.19968886 148.11140788 -10.59521484 147.82348633 C-13.59863281 146.60522461 -13.59863281 146.60522461 -16.58740234 144.89379883 C-18.25077637 143.95528076 -18.25077637 143.95528076 -19.94775391 142.99780273 C-21.12215688 142.31512601 -22.29630555 141.63201163 -23.47021484 140.94848633 C-24.68535932 140.25508058 -25.90118553 139.56286821 -27.11767578 138.87182617 C-30.62165066 136.87515069 -34.10935601 134.85162238 -37.59521484 132.82348633 C-38.47790039 132.31301758 -39.36058594 131.80254883 -40.27001953 131.27661133 C-44.42124001 128.87390908 -48.55075125 126.43807755 -52.66455078 123.97192383 C-54.71837919 122.75022317 -56.78445766 121.5512896 -58.85302734 120.35473633 C-60.22550481 119.55279269 -61.59790373 118.7507146 -62.97021484 117.94848633 C-63.59573242 117.59093262 -64.22125 117.23337891 -64.86572266 116.86499023 C-68.24231833 114.8738334 -70.63091943 113.22747932 -72.59521484 109.82348633 C-72.98962402 106.56678772 -72.98962402 106.56678772 -73.01513672 102.65576172 C-73.02360626 101.94144485 -73.03207581 101.22712799 -73.040802 100.49116516 C-73.06416507 98.13430892 -73.0651944 95.77810576 -73.06396484 93.42114258 C-73.07106681 91.77973673 -73.07876586 90.13833336 -73.08703613 88.49693298 C-73.10047926 85.0579437 -73.1020505 81.61918398 -73.09619141 78.18017578 C-73.09029495 73.77704535 -73.12088425 69.37501743 -73.16130829 64.97210026 C-73.18718069 61.58253565 -73.19006318 58.1932367 -73.18641663 54.80358696 C-73.18810828 53.18048773 -73.19775534 51.5573763 -73.21556091 49.93437386 C-73.23774401 47.66237103 -73.22805553 45.39260184 -73.21044922 43.12060547 C-73.21250366 41.8291713 -73.21455811 40.53773712 -73.2166748 39.20716858 C-72.43399951 34.9457122 -70.89981008 33.53097336 -67.59521484 30.82348633 C-64.86987305 29.02514648 -64.86987305 29.02514648 -61.89599609 27.36254883 C-60.7810376 26.73300293 -59.6660791 26.10345703 -58.51733398 25.45483398 C-57.31419831 24.78592424 -56.11099025 24.11714468 -54.90771484 23.44848633 C-53.66559617 22.75064658 -52.42398519 22.05190245 -51.18286133 21.35229492 C-49.26262519 20.26988163 -47.3421259 19.18798202 -45.41993713 18.10903931 C-40.97338556 15.61121773 -36.55071267 13.07510673 -32.14208984 10.51098633 C-31.54949875 10.16667572 -30.95690765 9.82236511 -30.34635925 9.46762085 C-27.51567783 7.82211328 -24.68694184 6.17334884 -21.86010742 4.52124023 C-20.84585693 3.93262207 -19.83160645 3.34400391 -18.78662109 2.73754883 C-17.90176025 2.22144043 -17.01689941 1.70533203 -16.10522461 1.17358398 C-10.09930724 -2.0569114 -6.44843356 -2.92333032 0 0 Z " fill="#0063C7" transform="translate(233.59521484375,240.176513671875)"/>
<path d="M0 0 C7.38636237 3.01503985 14.27179794 7.38855599 21.125 11.4375 C23.22105124 12.67238932 25.31741544 13.90674756 27.4140625 15.140625 C28.48817383 15.77291016 29.56228516 16.40519531 30.66894531 17.05664062 C34.06455245 19.03766033 37.47818107 20.98376196 40.8984375 22.921875 C42.00429199 23.55295166 43.11014648 24.18402832 44.24951172 24.83422852 C46.38945155 26.05431889 48.53421894 27.26598698 50.68408203 28.46850586 C51.64427246 29.01901611 52.60446289 29.56952637 53.59375 30.13671875 C54.44646484 30.61842529 55.29917969 31.10013184 56.17773438 31.59643555 C56.77908203 32.05961182 57.38042969 32.52278809 58 33 C58 33.99 58 34.98 58 36 C55.73644721 37.57629025 53.52969393 38.91681782 51.125 40.25 C50.38338623 40.6732959 49.64177246 41.0965918 48.87768555 41.53271484 C47.20032145 42.48990355 45.52036736 43.44256239 43.83837891 44.39160156 C39.6132088 46.78584039 35.41396658 49.2244179 31.21191406 51.65893555 C27.8425325 53.60763059 24.46654983 55.54450053 21.08984375 57.48046875 C17.53330589 59.52407362 13.99885576 61.59111595 10.50390625 63.73828125 C9.87315186 64.11968262 9.24239746 64.50108398 8.5925293 64.89404297 C7.0307355 65.84288543 5.4795763 66.80917714 3.9296875 67.77734375 C0.04938893 69.39672168 -2.92793785 69.91144987 -7 69 C-11.50444367 67.04374321 -15.70750035 64.60602095 -19.9375 62.125 C-21.14796017 61.43137699 -22.35923095 60.73916676 -23.57128906 60.04833984 C-27.06000181 58.05326021 -30.53062785 56.02852013 -34 54 C-35.67297637 53.03090343 -37.34612604 52.06210588 -39.01953125 51.09375 C-43.03162264 48.7598663 -47.01968935 46.38758649 -51 44 C-52.45441152 43.1301823 -53.90883892 42.26039118 -55.36328125 41.390625 C-58.912213 39.2659676 -62.45724329 37.13493636 -66 35 C-63.60030318 32.34434213 -61.03555811 30.72001447 -57.93359375 28.953125 C-56.90242432 28.36233154 -55.87125488 27.77153809 -54.80883789 27.1628418 C-53.69629639 26.531604 -52.58375488 25.90036621 -51.4375 25.25 C-49.69149843 24.25114186 -47.94550101 23.25227637 -46.19975281 22.25297546 C-44.37456757 21.20900309 -42.54822092 20.1670861 -40.72167969 19.12548828 C-34.6576638 15.66520249 -28.61071673 12.17529787 -22.5625 8.6875 C-21.4499585 8.04780273 -20.33741699 7.40810547 -19.19116211 6.74902344 C-18.15999268 6.15508789 -17.12882324 5.56115234 -16.06640625 4.94921875 C-15.15834229 4.42674561 -14.25027832 3.90427246 -13.31469727 3.3659668 C-8.52923771 0.54193492 -5.63222363 -0.93498888 0 0 Z " fill="#0177EE" transform="translate(303,192)"/>
<path d="M0 0 C2.2125347 1.09627053 4.42393781 2.19473022 6.63476562 3.29443359 C7.25353577 3.60074203 7.87230591 3.90705048 8.50982666 4.22264099 C14.31792081 7.11547276 19.92014427 10.31436525 25.5 13.625 C27.56637595 14.8451034 29.63278298 16.06515417 31.69921875 17.28515625 C32.7361084 17.89891113 33.77299805 18.51266602 34.84130859 19.14501953 C37.99137882 20.99493711 41.15842645 22.81189766 44.33203125 24.62109375 C45.84023438 25.48903564 45.84023438 25.48903564 47.37890625 26.37451172 C49.29165452 27.47510606 51.20942995 28.5670231 53.1328125 29.64892578 C53.99261719 30.14763184 54.85242188 30.64633789 55.73828125 31.16015625 C56.49149658 31.58949463 57.24471191 32.01883301 58.02075195 32.46118164 C60.53589866 34.41664848 61.58783774 36.13524957 63 39 C63.36076355 42.22077942 63.36076355 42.22077942 63.34057617 45.90161133 C63.34123329 46.91220108 63.34123329 46.91220108 63.34190369 47.94320679 C63.33982391 50.15644943 63.31653266 52.36892196 63.29296875 54.58203125 C63.28736988 56.12187791 63.28310115 57.66172994 63.28010559 59.20158386 C63.26867967 63.24424121 63.23923222 67.28657255 63.20599365 71.32910156 C63.17524396 75.45828848 63.16158981 79.58752834 63.14648438 83.71679688 C63.11436007 91.81134712 63.06319134 99.90563295 63 108 C58.90675245 106.67899257 55.35593525 105.22609607 51.640625 103.05078125 C50.61928467 102.4570874 49.59794434 101.86339355 48.5456543 101.25170898 C47.45808838 100.61177002 46.37052246 99.97183105 45.25 99.3125 C43.52233384 98.30224306 41.7946585 97.29200144 40.06645203 96.28266907 C38.87149299 95.58467558 37.67692752 94.88600788 36.48274231 94.18669128 C32.24080031 91.70742807 27.96985729 89.28446682 23.68359375 86.8828125 C22.4988158 86.21480499 21.31424253 85.5464343 20.12988281 84.87768555 C17.88033593 83.60980263 15.62594716 82.35046222 13.36621094 81.10083008 C12.34172852 80.51970459 11.31724609 79.9385791 10.26171875 79.33984375 C9.36412842 78.83831787 8.46653809 78.33679199 7.54174805 77.82006836 C3.18312592 74.69899181 0.33866836 71.90322938 -0.60127258 66.6210022 C-0.59016953 65.39078339 -0.57906647 64.16056458 -0.56762695 62.89306641 C-0.56835709 62.20944031 -0.56908722 61.52581421 -0.56983948 60.82147217 C-0.56637917 58.58067119 -0.52759894 56.3419964 -0.48828125 54.1015625 C-0.47894741 52.54073217 -0.47183399 50.97988712 -0.46684265 49.41903687 C-0.44781731 45.32516526 -0.39875665 41.23219077 -0.34332275 37.13867188 C-0.29203284 32.9558526 -0.26930794 28.77288734 -0.24414062 24.58984375 C-0.19063214 16.392819 -0.10537524 8.19652132 0 0 Z " fill="#0178EE" transform="translate(230,239)"/>
<path d="M0 0 C0.06956294 8.77970525 0.1228431 17.55931538 0.15543652 26.33923626 C0.1710811 30.41627944 0.19229708 34.49313383 0.22631836 38.57006836 C0.25895524 42.50581018 0.2768621 46.4413706 0.28463173 50.37723732 C0.2901675 51.87752957 0.30097761 53.37781209 0.31719017 54.87802696 C0.33902272 56.98229672 0.3419646 59.08582044 0.34057617 61.19018555 C0.34723801 62.38709518 0.35389984 63.58400482 0.36076355 64.81718445 C-0.16677787 69.47138808 -1.89878557 72.00695806 -5.33129883 75.10229492 C-8.04944808 77.03516238 -10.79476875 78.72399928 -13.69921875 80.36328125 C-14.81449951 80.99621094 -15.92978027 81.62914062 -17.07885742 82.28125 C-18.2817046 82.95839316 -19.48458624 83.63547512 -20.6875 84.3125 C-22.55910645 85.37192441 -24.42984208 86.43287456 -26.30049133 87.49398804 C-27.5857722 88.22300396 -28.87132807 88.95153525 -30.15715027 89.67959595 C-34.64959746 92.22542744 -39.12633337 94.79723816 -43.59375 97.38671875 C-44.19580765 97.7355159 -44.7978653 98.08431305 -45.41816711 98.44367981 C-48.30911059 100.11925158 -51.19854751 101.79734941 -54.08666992 103.4777832 C-55.11381104 104.07292725 -56.14095215 104.66807129 -57.19921875 105.28125 C-58.10502686 105.80783203 -59.01083496 106.33441406 -59.9440918 106.87695312 C-62 108 -62 108 -63 108 C-63.09280748 99.10721205 -63.16381914 90.21459161 -63.20724869 81.32142448 C-63.22809606 77.19164765 -63.2563609 73.06220291 -63.30175781 68.93261719 C-63.34531833 64.94498571 -63.36915855 60.95767304 -63.37950897 56.96982193 C-63.38688213 55.4507966 -63.40128042 53.9317881 -63.42292023 52.41289902 C-63.45209175 50.27993239 -63.45595054 48.14827173 -63.45410156 46.01513672 C-63.46298401 44.8026828 -63.47186646 43.59022888 -63.48101807 42.34103394 C-62.76428055 37.36275034 -60.56802341 34.17530811 -56.57177734 31.17993164 C-55.6689502 30.67840576 -54.76612305 30.17687988 -53.8359375 29.66015625 C-52.80815186 29.07911133 -51.78036621 28.49806641 -50.72143555 27.89941406 C-49.06494995 26.9901416 -49.06494995 26.9901416 -47.375 26.0625 C-45.63343899 25.08307967 -43.89189068 24.1036359 -42.15110779 23.12283325 C-40.33531142 22.10194831 -38.51625178 21.08706652 -36.69677734 20.07275391 C-30.65650907 16.69677556 -24.67615485 13.21637734 -18.6875 9.75 C-15.6389595 7.99308859 -12.59037087 6.23626075 -9.54174805 4.47949219 C-7.7760795 3.45173775 -6.02845695 2.39259918 -4.29614258 1.30957031 C-2 0 -2 0 0 0 Z " fill="#0178EE" transform="translate(370,239)"/>
<path d="M0 0 C5.10804718 -0.10819888 8.10488779 0.13289785 12.5546875 2.7109375 C13.57304687 3.29133789 14.59140625 3.87173828 15.640625 4.46972656 C17.24164063 5.41283691 17.24164063 5.41283691 18.875 6.375 C20.54175781 7.3335791 20.54175781 7.3335791 22.2421875 8.31152344 C25.50391747 10.19249214 28.75328308 12.09326354 32 14 C33.60651396 14.93533718 35.21325371 15.87028675 36.8203125 16.8046875 C39.54716579 18.39555906 42.26499307 20.00041757 44.9765625 21.6171875 C47.87083898 23.34110081 50.78462301 25.02637081 53.7109375 26.6953125 C54.49082031 27.14358398 55.27070313 27.59185547 56.07421875 28.05371094 C57.56521739 28.90995931 59.05981688 29.7599798 60.55859375 30.60253906 C67.27619028 34.482307 67.27619028 34.482307 69 38 C68.85522461 39.9375 68.85522461 39.9375 68 42 C65.97241211 43.51708984 65.97241211 43.51708984 63.27734375 44.9609375 C62.27517822 45.50814453 61.2730127 46.05535156 60.24047852 46.61914062 C59.15049561 47.19857422 58.0605127 47.77800781 56.9375 48.375 C54.65255778 49.62040164 52.36873216 50.86785377 50.0859375 52.1171875 C49.20770073 52.59505707 49.20770073 52.59505707 48.3117218 53.08258057 C42.15948277 56.43638317 36.10643072 59.95520906 30.0625 63.5 C29.10013428 64.06251465 28.13776855 64.6250293 27.14624023 65.20458984 C25.76094116 66.01597412 25.76094116 66.01597412 24.34765625 66.84375 C23.45965332 67.36332275 22.57165039 67.88289551 21.65673828 68.41821289 C19.83496806 69.50287097 18.02651594 70.61012209 16.22998047 71.73608398 C14.90764404 72.56088257 14.90764404 72.56088257 13.55859375 73.40234375 C12.38574829 74.14859009 12.38574829 74.14859009 11.18920898 74.90991211 C8.85063721 76.07437324 7.5749513 76.32980856 5 76.0625 C2 75 2 75 0 72 C-0.24050903 68.90583801 -0.24050903 68.90583801 -0.22705078 65.05004883 C-0.22734283 64.34735367 -0.22763489 63.64465851 -0.22793579 62.92066956 C-0.22654308 60.59933093 -0.21098487 58.27831377 -0.1953125 55.95703125 C-0.19158216 54.34706294 -0.18873528 52.73709236 -0.18673706 51.12712097 C-0.17910227 46.89053068 -0.15945513 42.6540776 -0.1373291 38.4175415 C-0.11686735 34.09413509 -0.10773464 29.7707065 -0.09765625 25.44726562 C-0.07620906 16.96478079 -0.04207501 8.48240747 0 0 Z " fill="#004F94" transform="translate(370,238)"/>
<path d="M0 0 C3.3914178 0.67013395 6.0112775 1.97546055 9.015625 3.66796875 C10.50449219 4.50328125 10.50449219 4.50328125 12.0234375 5.35546875 C13.08820313 5.96003906 14.15296875 6.56460938 15.25 7.1875 C16.90128906 8.11949219 16.90128906 8.11949219 18.5859375 9.0703125 C26.41604471 13.50261692 34.21871117 17.98252274 42 22.5 C42.97098633 23.06227295 43.94197266 23.6245459 44.94238281 24.20385742 C59.99715137 32.99715137 59.99715137 32.99715137 64 37 C64.4375 39.375 64.4375 39.375 64 42 C60.80114548 44.86533647 57.39072041 47.05983759 53.66796875 49.1796875 C52.11589722 50.06853638 52.11589722 50.06853638 50.5324707 50.9753418 C49.42863037 51.602229 48.32479004 52.22911621 47.1875 52.875 C45.4456248 53.87160383 43.70375628 54.86821969 41.96238708 55.8657074 C40.76861743 56.54941899 39.57457391 57.23265261 38.38026428 57.91542053 C32.16889971 61.46823339 25.98924093 65.07488028 19.8125 68.6875 C17.00925561 70.32680004 14.20610025 71.96601498 11.39697266 73.59521484 C9.88076043 74.4838159 8.37376029 75.38849655 6.88037109 76.31494141 C5.29609437 77.28322551 3.65249988 78.15338852 2 79 C-1 78 -1 78 -2.17033386 75.85142517 C-3.1245706 72.57187146 -3.2611008 69.79361847 -3.2746582 66.37719727 C-3.27976913 65.73261566 -3.28488007 65.08803406 -3.29014587 64.42391968 C-3.30398421 62.30465265 -3.30308957 60.18571294 -3.30078125 58.06640625 C-3.30467128 56.58576844 -3.30900658 55.10513173 -3.31376648 53.62449646 C-3.32121623 50.52526223 -3.32094643 47.42614194 -3.31567383 44.3269043 C-3.30987996 40.36471229 -3.32681382 36.40298787 -3.3500185 32.44087315 C-3.36478423 29.38414302 -3.36562372 26.32752478 -3.36250877 23.2707653 C-3.36302053 21.8103944 -3.36823093 20.350017 -3.37832069 18.88968086 C-3.39072397 16.84354803 -3.38387148 14.79831678 -3.37231445 12.75219727 C-3.37294388 11.59035416 -3.3735733 10.42851105 -3.3742218 9.23146057 C-2.95384723 5.60146405 -1.80543354 3.15181808 0 0 Z " fill="#004F94" transform="translate(236,147)"/>
<path d="M0 0 C2.62867399 1.25104865 4.88486009 2.50181002 7.3125 4.0625 C8.80612412 4.98106784 10.30100276 5.89759775 11.796875 6.8125 C12.61736328 7.31910156 13.43785156 7.82570313 14.28320312 8.34765625 C19.48794288 11.51315577 24.78101579 14.5274441 30.0625 17.5625 C31.17520264 18.20396973 32.28790527 18.84543945 33.43432617 19.50634766 C41.9234695 24.39644467 50.44275058 29.23017366 59 34 C57.04689614 40.39197626 52.31525497 42.96333854 46.73828125 46.14453125 C45.7136377 46.73210205 44.68899414 47.31967285 43.63330078 47.92504883 C42.53743652 48.54790771 41.44157227 49.1707666 40.3125 49.8125 C38.5788906 50.80462883 36.84528558 51.7967654 35.11193848 52.78935242 C33.30364268 53.82427609 31.49434913 54.85744157 29.68505859 55.890625 C25.99794102 57.99845842 22.32016346 60.12221636 18.64453125 62.25 C18.05197037 62.59286545 17.45940948 62.9357309 16.84889221 63.28898621 C13.99169088 64.94233091 11.13492316 66.59642064 8.27856445 68.2512207 C6.73688599 69.14200317 6.73688599 69.14200317 5.1640625 70.05078125 C3.80982178 70.83449097 3.80982178 70.83449097 2.42822266 71.6340332 C1.62690918 72.08480225 0.8255957 72.53557129 0 73 C-0.64275879 73.39082764 -1.28551758 73.78165527 -1.94775391 74.18432617 C-4.67615512 75.26874069 -7.08836865 75.05168787 -10 75 C-10.06946198 65.66421561 -10.12279178 56.32851996 -10.15543652 46.99253368 C-10.17110311 42.65760875 -10.19235934 38.3228604 -10.22631836 33.98803711 C-10.25887664 29.80591912 -10.27684553 25.62397115 -10.28463173 21.44173622 C-10.29018162 19.84489578 -10.30101906 18.24806481 -10.31719017 16.65129662 C-10.33891808 14.41730906 -10.34196896 12.18402712 -10.34057617 9.94995117 C-10.34723801 8.67754074 -10.35389984 7.40513031 -10.36076355 6.09416199 C-10 3 -10 3 -8.68061829 1.09321594 C-5.74895651 -0.81378425 -3.40024105 -0.39816294 0 0 Z " fill="#004F94" transform="translate(234,313)"/>
<path d="M0 0 C7.38636237 3.01503985 14.27179794 7.38855599 21.125 11.4375 C23.22105124 12.67238932 25.31741544 13.90674756 27.4140625 15.140625 C28.48817383 15.77291016 29.56228516 16.40519531 30.66894531 17.05664062 C34.06455245 19.03766033 37.47818107 20.98376196 40.8984375 22.921875 C42.00429199 23.55295166 43.11014648 24.18402832 44.24951172 24.83422852 C46.38945155 26.05431889 48.53421894 27.26598698 50.68408203 28.46850586 C51.64427246 29.01901611 52.60446289 29.56952637 53.59375 30.13671875 C54.44646484 30.61842529 55.29917969 31.10013184 56.17773438 31.59643555 C56.77908203 32.05961182 57.38042969 32.52278809 58 33 C58 33.99 58 34.98 58 36 C54.40429978 39.32155995 50.65767594 41.50269889 46 43 C41.33645342 42.13708526 37.90659751 39.60133434 34 37 C32.66983603 36.21153177 31.33353321 35.43335439 29.9921875 34.6640625 C24.21431189 31.346717 18.48854973 27.95523135 12.859375 24.390625 C11.86804565 23.77151245 11.86804565 23.77151245 10.85668945 23.13989258 C9.62083952 22.36561947 8.39210363 21.57981233 7.17260742 20.7800293 C2.9671283 18.1569406 -1.02217352 16.22917699 -6 17 C-10.73491344 19.01784866 -15.0537944 21.64224393 -19.4375 24.3125 C-20.68760835 25.05082861 -21.939002 25.78698517 -23.19165039 26.52099609 C-28.64996943 29.73191281 -34.05628913 33.02467122 -39.4375 36.36328125 C-40.60067749 37.0752063 -40.60067749 37.0752063 -41.78735352 37.80151367 C-43.181931 38.65992227 -44.56613012 39.53551673 -45.93725586 40.4309082 C-50.32219381 43.14611391 -50.32219381 43.14611391 -53.609375 42.4375 C-54.39828125 41.963125 -55.1871875 41.48875 -56 41 C-56.88300781 40.50242188 -57.76601562 40.00484375 -58.67578125 39.4921875 C-59.54589844 38.95851562 -60.41601562 38.42484375 -61.3125 37.875 C-62.19550781 37.33617187 -63.07851562 36.79734375 -63.98828125 36.2421875 C-64.65214844 35.83226562 -65.31601563 35.42234375 -66 35 C-63.60030318 32.34434213 -61.03555811 30.72001447 -57.93359375 28.953125 C-56.90242432 28.36233154 -55.87125488 27.77153809 -54.80883789 27.1628418 C-53.69629639 26.531604 -52.58375488 25.90036621 -51.4375 25.25 C-49.69149843 24.25114186 -47.94550101 23.25227637 -46.19975281 22.25297546 C-44.37456757 21.20900309 -42.54822092 20.1670861 -40.72167969 19.12548828 C-34.6576638 15.66520249 -28.61071673 12.17529787 -22.5625 8.6875 C-21.4499585 8.04780273 -20.33741699 7.40810547 -19.19116211 6.74902344 C-18.15999268 6.15508789 -17.12882324 5.56115234 -16.06640625 4.94921875 C-15.15834229 4.42674561 -14.25027832 3.90427246 -13.31469727 3.3659668 C-8.52923771 0.54193492 -5.63222363 -0.93498888 0 0 Z " fill="#B9CED0" transform="translate(303,192)"/>
<path d="M0 0 C4.62 2.31 9.24 4.62 14 7 C14.01458252 8.60963623 14.02916504 10.21927246 14.04418945 11.87768555 C14.10217079 17.85089306 14.17940459 23.82372356 14.26245117 29.79663086 C14.29570111 32.38152954 14.32373277 34.96650084 14.34643555 37.55151367 C14.37997927 41.26773009 14.43229728 44.98328101 14.48828125 48.69921875 C14.49467117 49.85459641 14.5010611 51.00997406 14.50764465 52.20036316 C14.53733589 53.82147758 14.53733589 53.82147758 14.56762695 55.4753418 C14.57873001 56.42354294 14.58983307 57.37174408 14.60127258 58.34867859 C15.07783333 61.5175495 16.14323157 63.40786525 18 66 C20.3199165 67.73992282 20.3199165 67.73992282 23.05859375 69.12890625 C24.07574463 69.68239746 25.09289551 70.23588867 26.14086914 70.80615234 C27.22875732 71.38574707 28.31664551 71.9653418 29.4375 72.5625 C31.69556913 73.81594405 33.95337781 75.0698574 36.2109375 76.32421875 C40.46452039 78.65649729 44.74823388 80.88011161 49.1015625 83.01953125 C62.04967937 89.64276154 62.04967937 89.64276154 63.83740234 94.07714844 C64.68595059 98.88593987 64.07862055 103.27803891 63 108 C58.89102713 106.7423893 55.34593014 105.22023808 51.640625 103.05078125 C50.61928467 102.4570874 49.59794434 101.86339355 48.5456543 101.25170898 C47.45808838 100.61177002 46.37052246 99.97183105 45.25 99.3125 C43.52233384 98.30224306 41.7946585 97.29200144 40.06645203 96.28266907 C38.87149299 95.58467558 37.67692752 94.88600788 36.48274231 94.18669128 C32.24080031 91.70742807 27.96985729 89.28446682 23.68359375 86.8828125 C22.4988158 86.21480499 21.31424253 85.5464343 20.12988281 84.87768555 C17.88033593 83.60980263 15.62594716 82.35046222 13.36621094 81.10083008 C12.34172852 80.51970459 11.31724609 79.9385791 10.26171875 79.33984375 C9.36412842 78.83831787 8.46653809 78.33679199 7.54174805 77.82006836 C3.18312592 74.69899181 0.33866836 71.90322938 -0.60127258 66.6210022 C-0.59016953 65.39078339 -0.57906647 64.16056458 -0.56762695 62.89306641 C-0.56835709 62.20944031 -0.56908722 61.52581421 -0.56983948 60.82147217 C-0.56637917 58.58067119 -0.52759894 56.3419964 -0.48828125 54.1015625 C-0.47894741 52.54073217 -0.47183399 50.97988712 -0.46684265 49.41903687 C-0.44781731 45.32516526 -0.39875665 41.23219077 -0.34332275 37.13867188 C-0.29203284 32.9558526 -0.26930794 28.77288734 -0.24414062 24.58984375 C-0.19063184 16.39277304 -0.10273411 8.19660172 0 0 Z " fill="#BACED0" transform="translate(230,239)"/>
<path d="M0 0 C0.78181641 -0.020625 1.56363281 -0.04125 2.36914062 -0.0625 C8.93244118 -0.106365 13.14040605 1.5492964 18.875 4.75 C24.38345737 10.70508905 25.87850374 19.35044331 26.1875 27.25 C26.24744141 28.51070313 26.24744141 28.51070313 26.30859375 29.796875 C26.54658194 39.48439411 26.33842433 51.24433542 20.1875 59.25 C14.08801853 64.9229443 8.46844297 65.44751018 0.4375 65.5 C-0.3359375 65.520625 -1.109375 65.54125 -1.90625 65.5625 C-8.80540101 65.60880303 -14.47135047 64.48709844 -19.625 59.5625 C-27.48736228 47.65663712 -27.16261217 31.83082527 -25.125 18.125 C-23.69512461 11.61556726 -20.96147531 6.96040892 -15.75 2.8125 C-10.52366683 0.03253555 -5.80456675 0.03772261 0 0 Z M-10.4375 13.59375 C-16.32236658 20.68233929 -14.25137319 34.79947817 -13.5703125 43.2578125 C-12.96964508 47.36441632 -12.23903852 50.38534485 -9.1875 53.3125 C-4.72493683 55.87434182 -0.93606185 57.07133499 4.1484375 55.734375 C7.42850845 54.43341859 9.94332044 52.95321629 12.1875 50.25 C15.88762716 40.35661188 16.13022149 25.08784832 12.1875 15.25 C9.69266206 11.71291069 6.45658566 10.04230837 2.25 9.25 C-2.67242619 8.91052233 -6.60708409 10.42629069 -10.4375 13.59375 Z " fill="#333333" transform="translate(72.8125,422.75)"/>
<path d="M0 0 C0.06956294 8.77970525 0.1228431 17.55931538 0.15543652 26.33923626 C0.1710811 30.41627944 0.19229708 34.49313383 0.22631836 38.57006836 C0.25895524 42.50581018 0.2768621 46.4413706 0.28463173 50.37723732 C0.2901675 51.87752957 0.30097761 53.37781209 0.31719017 54.87802696 C0.33902272 56.98229672 0.3419646 59.08582044 0.34057617 61.19018555 C0.34723801 62.38709518 0.35389984 63.58400482 0.36076355 64.81718445 C-0.16677787 69.47138808 -1.89878557 72.00695806 -5.33129883 75.10229492 C-8.04944808 77.03516238 -10.79476875 78.72399928 -13.69921875 80.36328125 C-14.81449951 80.99621094 -15.92978027 81.62914062 -17.07885742 82.28125 C-18.2817046 82.95839316 -19.48458624 83.63547512 -20.6875 84.3125 C-22.55910645 85.37192441 -24.42984208 86.43287456 -26.30049133 87.49398804 C-27.5857722 88.22300396 -28.87132807 88.95153525 -30.15715027 89.67959595 C-34.64959746 92.22542744 -39.12633337 94.79723816 -43.59375 97.38671875 C-44.19580765 97.7355159 -44.7978653 98.08431305 -45.41816711 98.44367981 C-48.30911059 100.11925158 -51.19854751 101.79734941 -54.08666992 103.4777832 C-55.11381104 104.07292725 -56.14095215 104.66807129 -57.19921875 105.28125 C-58.10502686 105.80783203 -59.01083496 106.33441406 -59.9440918 106.87695312 C-62 108 -62 108 -63 108 C-63 102.39 -63 96.78 -63 91 C-61.42734375 90.12859375 -59.8546875 89.2571875 -58.234375 88.359375 C-47.63744937 82.46960673 -37.06057091 76.54732982 -26.625 70.375 C-25.37928223 69.64941895 -25.37928223 69.64941895 -24.10839844 68.90917969 C-23.34301758 68.45188477 -22.57763672 67.99458984 -21.7890625 67.5234375 C-21.12600098 67.13075684 -20.46293945 66.73807617 -19.77978516 66.33349609 C-17.64071829 64.73080978 -16.41960321 63.27307783 -15 61 C-14.61113943 58.46753879 -14.61113943 58.46753879 -14.75805664 55.69995117 C-14.78646385 54.11261421 -14.78646385 54.11261421 -14.81544495 52.49320984 C-14.84669968 51.35463028 -14.87795441 50.21605072 -14.91015625 49.04296875 C-14.9317399 46.62697576 -14.95053298 44.21095653 -14.96679688 41.79492188 C-15.00585396 37.98820742 -15.06256529 34.18513745 -15.16772461 30.37963867 C-15.69649789 9.63369675 -15.69649789 9.63369675 -12.80389404 5.14312744 C-9.28727335 1.80243229 -4.84102184 0 0 0 Z " fill="#FAFCFE" transform="translate(370,239)"/>
<path d="M0 0 C0 19.8 0 39.6 0 60 C-4.01003496 58.39598602 -7.43214527 56.71697805 -11.15625 54.5859375 C-11.73983276 54.25260406 -12.32341553 53.91927063 -12.92468262 53.57583618 C-14.1593355 52.8696537 -15.39308414 52.16188822 -16.62597656 51.45263672 C-18.46452968 50.39539682 -20.30619757 49.34376815 -22.1484375 48.29296875 C-25.17357984 46.56383735 -28.18531827 44.81282294 -31.19189453 43.05163574 C-33.02005257 41.98833697 -34.85921957 40.94596216 -36.69921875 39.90332031 C-37.8729479 39.22034892 -39.04614704 38.53646565 -40.21875 37.8515625 C-41.78012695 36.9555835 -41.78012695 36.9555835 -43.37304688 36.04150391 C-46.41426826 33.67805658 -47.54456568 31.52686935 -49 28 C-37.51499149 21.1721607 -26.00388598 14.39006469 -14.43792725 7.70022583 C-13.26957363 7.02426407 -12.10164613 6.34756526 -10.93414307 5.6701355 C-9.29462908 4.71926173 -7.65321834 3.77166063 -6.01171875 2.82421875 C-5.06772217 2.27854248 -4.12372559 1.73286621 -3.15112305 1.1706543 C-1 0 -1 0 0 0 Z " fill="#0177EE" transform="translate(356,319)"/>
<path d="M0 0 C0 22.44 0 44.88 0 68 C-0.33 68 -0.66 68 -1 68 C-0.93876953 67.14494873 -0.87753906 66.28989746 -0.81445312 65.40893555 C-0.6640283 58.46292589 -0.6640283 58.46292589 -4.15234375 52.77587891 C-7.1907233 50.88110581 -10.25310611 49.32234548 -13.5 47.8125 C-15.78990283 46.64617964 -18.07896279 45.478203 -20.3671875 44.30859375 C-21.49608398 43.75155762 -22.62498047 43.19452148 -23.78808594 42.62060547 C-28.18928516 40.3999335 -32.4079543 37.92368424 -36.625 35.375 C-37.9082209 34.61091465 -39.19203697 33.84782757 -40.4765625 33.0859375 C-41.05567383 32.74143555 -41.63478516 32.39693359 -42.23144531 32.04199219 C-45.13671843 30.33027136 -48.06812302 28.6656679 -51 27 C-49.65621026 22.96863077 -47.94310632 22.54415532 -44.26953125 20.48828125 C-43.68266037 20.15636276 -43.09578949 19.82444427 -42.49113464 19.48246765 C-40.60299392 18.41711845 -38.70804178 17.36461375 -36.8125 16.3125 C-35.58610896 15.6239003 -34.36019229 14.93445505 -33.13476562 14.24414062 C-30.67673001 12.86043655 -28.2155252 11.4826047 -25.75244141 10.10791016 C-23.17670001 8.66669437 -20.61276212 7.2068187 -18.05615234 5.73193359 C-17.41941086 5.36496872 -16.78266937 4.99800385 -16.12663269 4.61991882 C-14.36142889 3.60054934 -12.59801806 2.57807687 -10.8347168 1.55541992 C-6.31662303 -0.92367537 -5.31413321 -1.06282664 0 0 Z " fill="#0579EF" transform="translate(230,239)"/>
<path d="M0 0 C0.07608273 7.45639508 0.12861377 14.91269 0.16479492 22.36938477 C0.17987863 24.90588115 0.20034831 27.44235148 0.22631836 29.97875977 C0.26271881 33.62522822 0.27973082 37.27135173 0.29296875 40.91796875 C0.30845261 42.05147263 0.32393646 43.1849765 0.33988953 44.35282898 C0.34011612 45.41355118 0.34034271 46.47427338 0.34057617 47.56713867 C0.34723801 48.49757492 0.35389984 49.42801117 0.36076355 50.38664246 C-0.07003699 53.50734532 -1.23520071 55.42157449 -3 58 C-13.24935112 52.16718745 -23.46424771 46.27520799 -33.67138672 40.36889648 C-39.75049089 36.85596779 -45.84650414 33.38111757 -52 30 C-49.01808224 27.66820585 -45.94217818 25.73097838 -42.66015625 23.84765625 C-41.07932251 22.93802124 -41.07932251 22.93802124 -39.46655273 22.01000977 C-38.34321533 21.36733154 -37.21987793 20.72465332 -36.0625 20.0625 C-34.90101735 19.39593609 -33.73964141 18.72918622 -32.57836914 18.06225586 C-30.21229979 16.70403521 -27.84528016 15.34749161 -25.47753906 13.9921875 C-22.19815259 12.11460835 -18.92301371 10.22970737 -15.6484375 8.34375 C-13.74491231 7.24979006 -11.84127292 6.15602877 -9.9375 5.0625 C-9.04619385 4.54888916 -8.1548877 4.03527832 -7.23657227 3.50610352 C-6.42502686 3.04131592 -5.61348145 2.57652832 -4.77734375 2.09765625 C-4.06827881 1.69039307 -3.35921387 1.28312988 -2.62866211 0.86352539 C-1 0 -1 0 0 0 Z " fill="#0177EF" transform="translate(366,169)"/>
<path d="M0 0 C4.4844584 3.34136116 7.19692969 6.85066561 8.1875 12.375 C8.25581987 14.7907906 8.27237642 17.20834713 8.25 19.625 C8.24097656 20.88828125 8.23195312 22.1515625 8.22265625 23.453125 C8.21105469 24.41734375 8.19945312 25.3815625 8.1875 26.375 C-2.41536047 28.59470453 -13.0169737 28.96963439 -23.8125 29.375 C-21.88858351 34.68911494 -21.88858351 34.68911494 -17.8125 38.375 C-15.19648445 38.65099951 -15.19648445 38.65099951 -12.26953125 38.5703125 C-11.19638672 38.56386719 -10.12324219 38.55742187 -9.01757812 38.55078125 C-7.89802734 38.53402344 -6.77847656 38.51726562 -5.625 38.5 C-4.49384766 38.49097656 -3.36269531 38.48195313 -2.19726562 38.47265625 C0.59786828 38.44906862 3.39257845 38.416153 6.1875 38.375 C6.6825 42.83 6.6825 42.83 7.1875 47.375 C1.15441119 48.41547707 -4.75955447 48.59227521 -10.875 48.625 C-11.84244141 48.645625 -12.80988281 48.66625 -13.80664062 48.6875 C-19.23958895 48.7172492 -23.1483164 48.48689644 -27.8125 45.375 C-34.38502554 38.65309888 -35.15837554 32.48469642 -35.125 23.5 C-35.14111328 22.64019531 -35.15722656 21.78039062 -35.17382812 20.89453125 C-35.17921832 13.79026079 -34.08780384 8.12931517 -29.4375 2.5 C-22.19221082 -3.3652341 -8.52800026 -3.87636375 0 0 Z M-22.8125 10.375 C-24.31859162 13.95647146 -24.8125 17.488371 -24.8125 21.375 C-21.33298477 21.23681468 -17.85399505 21.08817399 -14.375 20.9375 C-13.38177734 20.89818359 -12.38855469 20.85886719 -11.36523438 20.81835938 C-9.94887695 20.75551758 -9.94887695 20.75551758 -8.50390625 20.69140625 C-7.62935791 20.65474854 -6.75480957 20.61809082 -5.85375977 20.58032227 C-3.8197598 20.59318934 -3.8197598 20.59318934 -2.8125 19.375 C-2.41595229 15.25090386 -2.38688771 13.05010915 -4.625 9.5 C-7.43848363 6.76690162 -9.24771131 6.42828195 -13.125 6.0625 C-17.62479433 6.4438385 -19.50842483 7.3014417 -22.8125 10.375 Z " fill="#333333" transform="translate(197.8125,439.625)"/>
<path d="M0 0 C0.85956299 -0.01369629 1.71912598 -0.02739258 2.60473633 -0.04150391 C7.67239563 -0.0050069 11.40982235 0.37999379 15.6875 3.375 C20.06467155 8.52437869 20.23166907 12.49004938 20.078125 18.9296875 C20.07246521 19.83123566 20.06680542 20.73278381 20.06097412 21.66165161 C20.03868555 24.52498763 19.98850389 27.38704589 19.9375 30.25 C19.91742525 32.19789852 19.89917619 34.14581677 19.8828125 36.09375 C19.83884547 40.8546547 19.76987063 45.61461114 19.6875 50.375 C16.0575 50.375 12.4275 50.375 8.6875 50.375 C8.67291748 49.26987061 8.65833496 48.16474121 8.64331055 47.02612305 C8.58535734 42.92764861 8.50812481 38.82972533 8.42504883 34.73168945 C8.39178536 32.95769188 8.36375782 31.1835881 8.34106445 29.40942383 C8.30754398 26.85972824 8.25523135 24.31100708 8.19921875 21.76171875 C8.19282883 20.96787277 8.1864389 20.17402679 8.17985535 19.35612488 C8.10350043 15.11269918 8.10350043 15.11269918 6.28588867 11.38500977 C2.37490315 8.91368746 -2.85878163 9.223571 -7.3125 9.6875 C-9.50730382 10.18088454 -9.50730382 10.18088454 -10.3125 12.375 C-10.46956331 15.21708026 -10.5709957 18.03837307 -10.62890625 20.8828125 C-10.64968735 21.72343231 -10.67046844 22.56405212 -10.69187927 23.43014526 C-10.75735439 26.12001235 -10.8162502 28.80997843 -10.875 31.5 C-10.91818716 33.32162489 -10.96180152 35.14323971 -11.00585938 36.96484375 C-11.11303368 41.43479394 -11.21430685 45.90484386 -11.3125 50.375 C-14.9425 50.375 -18.5725 50.375 -22.3125 50.375 C-22.33716852 44.00293258 -22.35534495 37.63089279 -22.36743164 31.25878906 C-22.37246891 29.08983883 -22.37929891 26.920892 -22.38793945 24.75195312 C-22.40003151 21.63931437 -22.40573428 18.5267204 -22.41015625 15.4140625 C-22.41531754 14.440065 -22.42047882 13.4660675 -22.42579651 12.46255493 C-22.42587204 11.56177216 -22.42594757 10.66098938 -22.42602539 9.73291016 C-22.428246 8.93793121 -22.43046661 8.14295227 -22.43275452 7.32388306 C-22.3125 5.375 -22.3125 5.375 -21.3125 3.375 C-14.60915356 0.2050878 -7.27094166 0.05959246 0 0 Z " fill="#333333" transform="translate(132.3125,437.625)"/>
<path d="M0 0 C4.4844584 3.34136116 7.19692969 6.85066561 8.1875 12.375 C8.25581987 14.7907906 8.27237642 17.20834713 8.25 19.625 C8.24097656 20.88828125 8.23195313 22.1515625 8.22265625 23.453125 C8.21105469 24.41734375 8.19945312 25.3815625 8.1875 26.375 C-3.13127323 28.30518815 -14.35535489 28.93700049 -25.8125 29.375 C-25.36459513 34.44033377 -25.36459513 34.44033377 -22.9375 38.75 C-19.42599162 41.43527111 -16.5482644 41.49529505 -12.26953125 41.47265625 C-10.65981445 41.46782227 -10.65981445 41.46782227 -9.01757812 41.46289062 C-7.89802734 41.45451172 -6.77847656 41.44613281 -5.625 41.4375 C-4.49384766 41.43298828 -3.36269531 41.42847656 -2.19726562 41.42382812 C0.59770927 41.41203498 3.3925782 41.3955765 6.1875 41.375 C6.6825 44.345 6.6825 44.345 7.1875 47.375 C1.37075261 48.6100628 -4.39405853 48.59507109 -10.3125 48.625 C-11.84197266 48.6559375 -11.84197266 48.6559375 -13.40234375 48.6875 C-20.19912507 48.72285387 -24.92550248 48.17951187 -30 43.25 C-35.74715021 34.13383071 -36.08539848 23.89398173 -34.30859375 13.3984375 C-32.87432405 7.97280012 -30.88177941 4.2505042 -26.8125 0.375 C-19.78593962 -3.33666213 -7.30981511 -3.32264323 0 0 Z M-24.8125 8.375 C-26.81935131 11.62418783 -27.00147517 14.82111419 -27.35546875 18.5546875 C-27.44207764 19.45687012 -27.52868652 20.35905273 -27.61791992 21.28857422 C-27.68213135 21.97709473 -27.74634277 22.66561523 -27.8125 23.375 C-24.10390769 23.23533274 -20.3957011 23.08716836 -16.6875 22.9375 C-15.64078125 22.89818359 -14.5940625 22.85886719 -13.515625 22.81835938 C-8.54056158 22.61368904 -3.70479851 22.38223793 1.1875 21.375 C1.47378265 15.84020217 1.47638248 12.08906489 -1.8125 7.375 C-8.59545973 2.2877802 -18.66265563 2.54053227 -24.8125 8.375 Z " fill="#565656" transform="translate(463.8125,439.625)"/>
<path d="M0 0 C0.74701172 -0.020625 1.49402344 -0.04125 2.26367188 -0.0625 C7.16069926 -0.09689528 10.43559092 0.5712341 14.6875 3.25 C20.44416355 9.00666355 21.91533099 14.89276614 22.01733398 22.80957031 C21.8908433 39.7058755 21.8908433 39.7058755 17.03515625 45.078125 C10.14925872 51.308916 2.51133632 50.81875329 -6.33105469 50.42480469 C-10.31280284 50.07353169 -13.38037575 48.97608309 -16.3125 46.25 C-21.31451565 39.73850034 -21.54779469 33.47935368 -21.625 25.625 C-21.65400391 24.66464844 -21.68300781 23.70429688 -21.71289062 22.71484375 C-21.7704831 16.18474291 -20.88886107 10.82473914 -17.3125 5.25 C-11.7029946 0.67081192 -7.03240116 0.04779882 0 0 Z M-12.0625 11.125 C-16.02185705 17.85590699 -15.37393153 29.00103093 -13.5625 36.375 C-12.21562851 39.47280442 -10.957785 41.16583606 -8.3125 43.25 C-2.41887599 45.21454134 3.66738198 45.24233868 9.25 42.5 C14.49768736 37.6559809 14.53941883 32.31034416 14.875 25.375 C14.75625688 19.25972943 14.17727549 14.03773058 10.1875 9.25 C3.38362549 3.80690039 -6.20189783 4.84578339 -12.0625 11.125 Z " fill="#565656" transform="translate(287.3125,437.75)"/>
<path d="M0 0 C5.13048066 0.85508011 7.21223112 1.39806659 11.4296875 3.88671875 C12.9770459 4.79006958 12.9770459 4.79006958 14.55566406 5.71166992 C15.65104492 6.36369385 16.74642578 7.01571777 17.875 7.6875 C19.6088399 8.70472376 21.34268332 9.7219416 23.07678223 10.73872375 C24.86454841 11.78887807 26.64977137 12.84324938 28.43457031 13.8984375 C31.89145305 15.9398016 35.36196215 17.95660094 38.8359375 19.96875 C40.97399874 21.20826363 43.1120212 22.44784417 45.25 23.6875 C46.24241699 24.26266357 47.23483398 24.83782715 48.25732422 25.43041992 C52.93787139 28.15797091 57.53969979 30.92418895 62 34 C58.3542778 38.47429543 53.68305955 41.87091225 48 43 C42.92205382 41.48940792 38.72140985 38.723925 34.3125 35.875 C33.06732477 35.11130556 31.81982944 34.35138135 30.57006836 33.59521484 C28.1245923 32.1074157 25.69382896 30.59971427 23.27539062 29.06835938 C19.85630632 26.90925962 16.40567311 24.81289776 12.93237305 22.74267578 C11.20709652 21.71142941 9.49543686 20.6574926 7.78515625 19.6015625 C4.71910822 17.75145543 4.71910822 17.75145543 0 16 C0 10.72 0 5.44 0 0 Z " fill="#FAFCFE" transform="translate(300,192)"/>
<path d="M0 0 C0.04631323 8.81426911 0.08186401 17.62849642 0.10362434 26.4428606 C0.1140675 30.53559983 0.12823636 34.6282559 0.15087891 38.72094727 C0.17258839 42.66963711 0.18456462 46.61824689 0.18975449 50.56699181 C0.19345366 52.07450305 0.20067711 53.58200986 0.21146011 55.08948708 C0.22595004 57.19883363 0.22797902 59.30784812 0.22705078 61.41723633 C0.231492 62.61858719 0.23593323 63.81993805 0.24050903 65.05769348 C0 68 0 68 -2 71 C-3.98535806 69.90700499 -5.96313943 68.80023764 -7.9375 67.6875 C-9.03964844 67.07261719 -10.14179688 66.45773437 -11.27734375 65.82421875 C-14 64 -14 64 -15 61 C-15.1190661 59.27381455 -15.18205512 57.54350163 -15.2121582 55.81347656 C-15.23079422 54.75517639 -15.24943024 53.69687622 -15.26863098 52.60650635 C-15.31352848 47.76644104 -15.32138198 42.92715674 -15.30737305 38.08691406 C-15.31078163 35.53599543 -15.33734997 32.98499917 -15.38745117 30.43457031 C-15.78008931 9.73865424 -15.78008931 9.73865424 -12.79095459 5.13989258 C-9.27212643 1.80481561 -4.8398937 0 0 0 Z " fill="#B9CED0" transform="translate(370,239)"/>
<path d="M0 0 C4.62 2.31 9.24 4.62 14 7 C14.33 25.81 14.66 44.62 15 64 C10.38 66.31 5.76 68.62 1 71 C0 70 0 70 -0.12025452 67.22227478 C-0.11803391 65.98095291 -0.11581329 64.73963104 -0.11352539 63.46069336 C-0.11367142 62.77779739 -0.11381744 62.09490143 -0.1139679 61.39131165 C-0.11326876 59.12412386 -0.1054764 56.85701726 -0.09765625 54.58984375 C-0.09579207 53.02185613 -0.09436817 51.45386793 -0.09336853 49.88587952 C-0.08954334 45.75123497 -0.07971306 41.61662534 -0.06866455 37.48199463 C-0.05845044 33.26599602 -0.05387091 29.04999178 -0.04882812 24.83398438 C-0.03809078 16.55597174 -0.02049399 8.27799423 0 0 Z " fill="#FEFEFE" transform="translate(230,239)"/>
<path d="M0 0 C0.98355469 0.00966797 1.96710938 0.01933594 2.98046875 0.02929688 C10.11196608 0.14148869 10.11196608 0.14148869 13.625 1.3125 C13.295 3.2925 12.965 5.2725 12.625 7.3125 C11.58601563 7.27769531 10.54703125 7.24289062 9.4765625 7.20703125 C-2.31354538 6.75407166 -2.31354538 6.75407166 -13.375 10.3125 C-19.24540792 17.041992 -18.58596871 24.06343752 -18.625 32.5625 C-18.645625 33.66980469 -18.66625 34.77710938 -18.6875 35.91796875 C-18.71847012 42.42943668 -18.33207128 47.4596792 -15.375 53.3125 C-9.39329959 58.39293767 -2.5327213 58.46178541 4.9375 58.375 C5.67806641 58.37048828 6.41863281 58.36597656 7.18164062 58.36132812 C8.99612899 58.34962175 10.81057534 58.33168898 12.625 58.3125 C13.12 61.2825 13.12 61.2825 13.625 64.3125 C9.13154078 65.81031974 4.70796758 65.57872247 0 65.625 C-1.44052734 65.66850586 -1.44052734 65.66850586 -2.91015625 65.71289062 C-9.45513721 65.77061434 -14.78128446 64.873609 -20.375 61.3125 C-28.11465742 53.50752418 -27.71584539 43.27789684 -27.6875 32.9375 C-27.70361328 31.76960938 -27.71972656 30.60171875 -27.73632812 29.3984375 C-27.74098312 21.09393396 -26.88332522 13.75030616 -22.75 6.4375 C-16.03395355 0.42840581 -8.69145048 -0.26249347 0 0 Z " fill="#565656" transform="translate(244.375,422.6875)"/>
<path d="M0 0 C0.85400391 -0.01160156 1.70800781 -0.02320313 2.58789062 -0.03515625 C7.66196981 -0.01161064 11.40551039 0.37697478 15.6875 3.375 C20.06467155 8.52437869 20.23166907 12.49004938 20.078125 18.9296875 C20.07246521 19.83123566 20.06680542 20.73278381 20.06097412 21.66165161 C20.03868555 24.52498763 19.98850389 27.38704589 19.9375 30.25 C19.91742525 32.19789852 19.89917619 34.14581677 19.8828125 36.09375 C19.83884547 40.8546547 19.76987063 45.61461114 19.6875 50.375 C17.3775 50.375 15.0675 50.375 12.6875 50.375 C12.657771 48.77845581 12.657771 48.77845581 12.62744141 47.1496582 C12.55119208 43.18913693 12.46250486 39.2289738 12.37011719 35.26879883 C12.33190715 33.55695686 12.29704048 31.84503678 12.265625 30.13305664 C12.21980062 27.66784817 12.16183587 25.20317367 12.1015625 22.73828125 C12.09001129 21.97663162 12.07846008 21.21498199 12.06655884 20.43025208 C11.95384378 16.34380261 11.60342892 13.01928439 9.6875 9.375 C6.46250587 6.95079448 3.30656392 7.13668072 -0.625 7.1875 C-1.71425781 7.19394531 -2.80351562 7.20039063 -3.92578125 7.20703125 C-7.40556427 7.37961564 -10.8634564 7.88227949 -14.3125 8.375 C-14.3125 22.235 -14.3125 36.095 -14.3125 50.375 C-16.6225 50.375 -18.9325 50.375 -21.3125 50.375 C-21.3125 34.865 -21.3125 19.355 -21.3125 3.375 C-13.49290649 1.24238359 -7.78805845 -0.10825101 0 0 Z " fill="#565656" transform="translate(397.3125,437.625)"/>
<path d="M0 0 C0.85400391 -0.01160156 1.70800781 -0.02320313 2.58789062 -0.03515625 C7.66196981 -0.01161064 11.40551039 0.37697478 15.6875 3.375 C20.06467155 8.52437869 20.23166907 12.49004938 20.078125 18.9296875 C20.07246521 19.83123566 20.06680542 20.73278381 20.06097412 21.66165161 C20.03868555 24.52498763 19.98850389 27.38704589 19.9375 30.25 C19.91742525 32.19789852 19.89917619 34.14581677 19.8828125 36.09375 C19.83884547 40.8546547 19.76987063 45.61461114 19.6875 50.375 C17.3775 50.375 15.0675 50.375 12.6875 50.375 C12.657771 48.77845581 12.657771 48.77845581 12.62744141 47.1496582 C12.55119208 43.18913693 12.46250486 39.2289738 12.37011719 35.26879883 C12.33190715 33.55695686 12.29704048 31.84503678 12.265625 30.13305664 C12.21980062 27.66784817 12.16183587 25.20317367 12.1015625 22.73828125 C12.09001129 21.97663162 12.07846008 21.21498199 12.06655884 20.43025208 C11.95384378 16.34380261 11.60342892 13.01928439 9.6875 9.375 C6.46250587 6.95079448 3.30656392 7.13668072 -0.625 7.1875 C-1.71425781 7.19394531 -2.80351562 7.20039063 -3.92578125 7.20703125 C-7.40556427 7.37961564 -10.8634564 7.88227949 -14.3125 8.375 C-14.3125 22.235 -14.3125 36.095 -14.3125 50.375 C-16.6225 50.375 -18.9325 50.375 -21.3125 50.375 C-21.3125 34.865 -21.3125 19.355 -21.3125 3.375 C-13.49290649 1.24238359 -7.78805845 -0.10825101 0 0 Z " fill="#565656" transform="translate(342.3125,437.625)"/>
<path d="M0 0 C1.98 0 3.96 0 6 0 C6 4.29 6 8.58 6 13 C9.63 13 13.26 13 17 13 C17 14.98 17 16.96 17 19 C13.37 19 9.74 19 6 19 C6.11828208 23.64494858 6.24253274 28.28968465 6.37231445 32.93432617 C6.41562305 34.51436015 6.45730106 36.09443969 6.49731445 37.67456055 C6.55511583 39.94594048 6.6187816 42.21709189 6.68359375 44.48828125 C6.70030624 45.19463211 6.71701874 45.90098297 6.73423767 46.6287384 C6.8259747 49.6664824 7.03207686 52.09623058 8 55 C10.07385852 55.76921285 10.07385852 55.76921285 12.5 56.125 C16.92277992 56.92277992 16.92277992 56.92277992 18 58 C18.04063832 59.66617115 18.042721 61.33388095 18 63 C16.10489301 63.08160748 14.20875496 63.13946459 12.3125 63.1875 C10.72888672 63.23970703 10.72888672 63.23970703 9.11328125 63.29296875 C5.55898906 62.9584996 3.80290251 62.18439863 1 60 C-1.70433088 56.21323388 -1.25360568 51.96945119 -1.1953125 47.515625 C-1.1924826 46.70003113 -1.18965271 45.88443726 -1.18673706 45.04412842 C-1.17556558 42.44593472 -1.15046675 39.84808905 -1.125 37.25 C-1.11496627 35.48568207 -1.10584111 33.72135872 -1.09765625 31.95703125 C-1.07563619 27.63788727 -1.04112733 23.31900259 -1 19 C-3.97 19 -6.94 19 -10 19 C-10 17.02 -10 15.04 -10 13 C-7.03 13 -4.06 13 -1 13 C-1.01160156 12.14535156 -1.02320313 11.29070312 -1.03515625 10.41015625 C-1.04417969 9.30542969 -1.05320312 8.20070313 -1.0625 7.0625 C-1.07410156 5.96035156 -1.08570313 4.85820312 -1.09765625 3.72265625 C-1 1 -1 1 0 0 Z " fill="#565656" transform="translate(534,425)"/>
<path d="M0 0 C1.11084961 -0.00193359 1.11084961 -0.00193359 2.24414062 -0.00390625 C3.38979492 0.00189453 3.38979492 0.00189453 4.55859375 0.0078125 C5.32623047 0.00394531 6.09386719 0.00007813 6.88476562 -0.00390625 C10.17536514 0.0018315 12.85368282 0.08534219 15.99609375 1.1328125 C15.66609375 3.1128125 15.33609375 5.0928125 14.99609375 7.1328125 C13.91070313 7.10960937 12.8253125 7.08640625 11.70703125 7.0625 C10.26172568 7.0437298 8.8164126 7.02553094 7.37109375 7.0078125 C6.65824219 6.99105469 5.94539063 6.97429687 5.2109375 6.95703125 C0.77711915 6.91635402 -2.90323352 7.22624972 -7.00390625 9.1328125 C-10.4651242 17.15654501 -10.43651606 28.56577981 -7.94140625 36.8828125 C-6.07304618 40.01683584 -4.87332357 41.56125185 -1.38671875 42.74609375 C4.02560799 43.62448776 9.53523591 43.33731064 14.99609375 43.1328125 C15.49109375 46.1028125 15.49109375 46.1028125 15.99609375 49.1328125 C9.01989753 51.45821124 -0.69940555 51.29973109 -7.828125 49.3671875 C-12.66993161 46.74800069 -14.299153 42.92151191 -16.18798828 37.94580078 C-17.53847984 33.28979728 -17.58409486 28.82581148 -17.50390625 24.0078125 C-17.519375 23.07066406 -17.53484375 22.13351562 -17.55078125 21.16796875 C-17.51627181 14.99940724 -16.52816799 10.27001761 -13.00390625 5.1328125 C-8.92698357 1.15781288 -5.58489649 0.00937175 0 0 Z " fill="#565656" transform="translate(501.00390625,437.8671875)"/>
</svg>
